<svg
  width="80"
  height="80"
  viewBox="0 0 80 80"
  fill="none"
  xmlns="http://www.w3.org/2000/svg"
>
  <!-- Outer reticle circle -->
  <circle cx="40" cy="40" r="36" stroke="currentColor" stroke-width="1.5" stroke-opacity="0.25" />

  <!-- Inner reticle circle -->
  <circle cx="40" cy="40" r="24" stroke="currentColor" stroke-width="1" stroke-opacity="0.15" />

  <!-- Reticle crosshair lines -->
  <line x1="40" y1="4"  x2="40" y2="16" stroke="currentColor" stroke-width="1" stroke-opacity="0.2" />
  <line x1="40" y1="64" x2="40" y2="76" stroke="currentColor" stroke-width="1" stroke-opacity="0.2" />
  <line x1="4"  y1="40" x2="16" y2="40" stroke="currentColor" stroke-width="1" stroke-opacity="0.2" />
  <line x1="64" y1="40" x2="76" y2="40" stroke="currentColor" stroke-width="1" stroke-opacity="0.2" />

  <!-- Waveform path drawn across the center -->
  <path
    d="M10 40 C14 40 16 28 20 28 C24 28 26 52 30 52 C34 52 36 22 40 22 C44 22 46 58 50 58 C54 58 56 32 60 32 C64 32 66 40 70 40"
    stroke="currentColor"
    stroke-width="2.5"
    stroke-linecap="round"
    stroke-linejoin="round"
    fill="none"
  />

  <!-- Playhead / cursor dot at center -->
  <circle cx="40" cy="40" r="3" fill="currentColor" />
  <circle cx="40" cy="40" r="5.5" stroke="currentColor" stroke-width="1" stroke-opacity="0.4" fill="none" />
</svg>
